<svg xmlns="http://www.w3.org/2000/svg"><!-- Ikon: lucide-static v1.49.0 (ISC) + ikon merek & gerbang buatan sendiri -->
<symbol id="i-menu" viewBox="0 0 24 24" fill="none" stroke="currentColor" stroke-width="2" stroke-linecap="round" stroke-linejoin="round"><path d="M4 5h16" /><path d="M4 12h16" /><path d="M4 19h16" /></symbol>
<symbol id="i-x" viewBox="0 0 24 24" fill="none" stroke="currentColor" stroke-width="2" stroke-linecap="round" stroke-linejoin="round"><path d="M18 6 6 18" /><path d="m6 6 12 12" /></symbol>
<symbol id="i-search" viewBox="0 0 24 24" fill="none" stroke="currentColor" stroke-width="2" stroke-linecap="round" stroke-linejoin="round"><path d="m21 21-4.34-4.34" /><circle cx="11" cy="11" r="8" /></symbol>
<symbol id="i-chevron-right" viewBox="0 0 24 24" fill="none" stroke="currentColor" stroke-width="2" stroke-linecap="round" stroke-linejoin="round"><path d="m9 18 6-6-6-6" /></symbol>
<symbol id="i-chevron-down" viewBox="0 0 24 24" fill="none" stroke="currentColor" stroke-width="2" stroke-linecap="round" stroke-linejoin="round"><path d="m6 9 6 6 6-6" /></symbol>
<symbol id="i-chevron-left" viewBox="0 0 24 24" fill="none" stroke="currentColor" stroke-width="2" stroke-linecap="round" stroke-linejoin="round"><path d="m15 18-6-6 6-6" /></symbol>
<symbol id="i-arrow-right" viewBox="0 0 24 24" fill="none" stroke="currentColor" stroke-width="2" stroke-linecap="round" stroke-linejoin="round"><path d="M5 12h14" /><path d="m12 5 7 7-7 7" /></symbol>
<symbol id="i-arrow-left" viewBox="0 0 24 24" fill="none" stroke="currentColor" stroke-width="2" stroke-linecap="round" stroke-linejoin="round"><path d="m12 19-7-7 7-7" /><path d="M19 12H5" /></symbol>
<symbol id="i-arrow-up-right" viewBox="0 0 24 24" fill="none" stroke="currentColor" stroke-width="2" stroke-linecap="round" stroke-linejoin="round"><path d="M7 7h10v10" /><path d="M7 17 17 7" /></symbol>
<symbol id="i-log-in" viewBox="0 0 24 24" fill="none" stroke="currentColor" stroke-width="2" stroke-linecap="round" stroke-linejoin="round"><path d="m10 17 5-5-5-5" /><path d="M15 12H3" /><path d="M15 3h4a2 2 0 0 1 2 2v14a2 2 0 0 1-2 2h-4" /></symbol>
<symbol id="i-log-out" viewBox="0 0 24 24" fill="none" stroke="currentColor" stroke-width="2" stroke-linecap="round" stroke-linejoin="round"><path d="m16 17 5-5-5-5" /><path d="M21 12H9" /><path d="M9 21H5a2 2 0 0 1-2-2V5a2 2 0 0 1 2-2h4" /></symbol>
<symbol id="i-user" viewBox="0 0 24 24" fill="none" stroke="currentColor" stroke-width="2" stroke-linecap="round" stroke-linejoin="round"><path d="M19 21v-2a4 4 0 0 0-4-4H9a4 4 0 0 0-4 4v2" /><circle cx="12" cy="7" r="4" /></symbol>
<symbol id="i-user-round" viewBox="0 0 24 24" fill="none" stroke="currentColor" stroke-width="2" stroke-linecap="round" stroke-linejoin="round"><circle cx="12" cy="8" r="5" /><path d="M20 21a8 8 0 0 0-16 0" /></symbol>
<symbol id="i-users" viewBox="0 0 24 24" fill="none" stroke="currentColor" stroke-width="2" stroke-linecap="round" stroke-linejoin="round"><path d="M16 21v-2a4 4 0 0 0-4-4H6a4 4 0 0 0-4 4v2" /><path d="M16 3.128a4 4 0 0 1 0 7.744" /><path d="M22 21v-2a4 4 0 0 0-3-3.87" /><circle cx="9" cy="7" r="4" /></symbol>
<symbol id="i-mail" viewBox="0 0 24 24" fill="none" stroke="currentColor" stroke-width="2" stroke-linecap="round" stroke-linejoin="round"><path d="m22 7-8.991 5.727a2 2 0 0 1-2.009 0L2 7" /><rect x="2" y="4" width="20" height="16" rx="2" /></symbol>
<symbol id="i-phone" viewBox="0 0 24 24" fill="none" stroke="currentColor" stroke-width="2" stroke-linecap="round" stroke-linejoin="round"><path d="M13.832 16.568a1 1 0 0 0 1.213-.303l.355-.465A2 2 0 0 1 17 15h3a2 2 0 0 1 2 2v3a2 2 0 0 1-2 2A18 18 0 0 1 2 4a2 2 0 0 1 2-2h3a2 2 0 0 1 2 2v3a2 2 0 0 1-.8 1.6l-.468.351a1 1 0 0 0-.292 1.233 14 14 0 0 0 6.392 6.384" /></symbol>
<symbol id="i-map-pin" viewBox="0 0 24 24" fill="none" stroke="currentColor" stroke-width="2" stroke-linecap="round" stroke-linejoin="round"><path d="M20 10c0 4.993-5.539 10.193-7.399 11.799a1 1 0 0 1-1.202 0C9.539 20.193 4 14.993 4 10a8 8 0 0 1 16 0" /><circle cx="12" cy="10" r="3" /></symbol>
<symbol id="i-message-circle" viewBox="0 0 24 24" fill="none" stroke="currentColor" stroke-width="2" stroke-linecap="round" stroke-linejoin="round"><path d="M2.992 16.342a2 2 0 0 1 .094 1.167l-1.065 3.29a1 1 0 0 0 1.236 1.168l3.413-.998a2 2 0 0 1 1.099.092 10 10 0 1 0-4.777-4.719" /></symbol>
<symbol id="i-shield-check" viewBox="0 0 24 24" fill="none" stroke="currentColor" stroke-width="2" stroke-linecap="round" stroke-linejoin="round"><path d="M20 13c0 5-3.5 7.5-7.66 8.95a1 1 0 0 1-.67-.01C7.5 20.5 4 18 4 13V6a1 1 0 0 1 1-1c2 0 4.5-1.2 6.24-2.72a1.17 1.17 0 0 1 1.52 0C14.51 3.81 17 5 19 5a1 1 0 0 1 1 1z" /><path d="m9 12 2 2 4-4" /></symbol>
<symbol id="i-scale" viewBox="0 0 24 24" fill="none" stroke="currentColor" stroke-width="2" stroke-linecap="round" stroke-linejoin="round"><path d="M12 3v18" /><path d="m19 8 3 8a5 5 0 0 1-6 0zV7" /><path d="M3 7h1a17 17 0 0 0 8-2 17 17 0 0 0 8 2h1" /><path d="m5 8 3 8a5 5 0 0 1-6 0zV7" /><path d="M7 21h10" /></symbol>
<symbol id="i-megaphone" viewBox="0 0 24 24" fill="none" stroke="currentColor" stroke-width="2" stroke-linecap="round" stroke-linejoin="round"><path d="M11 6a13 13 0 0 0 8.4-2.8A1 1 0 0 1 21 4v12a1 1 0 0 1-1.6.8A13 13 0 0 0 11 14H5a2 2 0 0 1-2-2V8a2 2 0 0 1 2-2z" /><path d="M6 14a12 12 0 0 0 2.4 7.2 2 2 0 0 0 3.2-2.4A8 8 0 0 1 10 14" /><path d="M8 6v8" /></symbol>
<symbol id="i-id-card" viewBox="0 0 24 24" fill="none" stroke="currentColor" stroke-width="2" stroke-linecap="round" stroke-linejoin="round"><path d="M13 19a4 4 0 00-8 0" /><path d="M16 10h2" /><path d="M16 14h2" /><circle cx="9" cy="12" r="3" /><rect x="2" y="5" width="20" height="14" rx="2" /></symbol>
<symbol id="i-file-text" viewBox="0 0 24 24" fill="none" stroke="currentColor" stroke-width="2" stroke-linecap="round" stroke-linejoin="round"><path d="M6 22a2 2 0 0 1-2-2V4a2 2 0 0 1 2-2h8a2.4 2.4 0 0 1 1.704.706l3.588 3.588A2.4 2.4 0 0 1 20 8v12a2 2 0 0 1-2 2z" /><path d="M14 2v5a1 1 0 0 0 1 1h5" /><path d="M10 9H8" /><path d="M16 13H8" /><path d="M16 17H8" /></symbol>
<symbol id="i-clock" viewBox="0 0 24 24" fill="none" stroke="currentColor" stroke-width="2" stroke-linecap="round" stroke-linejoin="round"><circle cx="12" cy="12" r="10" /><path d="M12 6v6l4 2" /></symbol>
<symbol id="i-check" viewBox="0 0 24 24" fill="none" stroke="currentColor" stroke-width="2" stroke-linecap="round" stroke-linejoin="round"><path d="M20 6 9 17l-5-5" /></symbol>
<symbol id="i-circle-check" viewBox="0 0 24 24" fill="none" stroke="currentColor" stroke-width="2" stroke-linecap="round" stroke-linejoin="round"><circle cx="12" cy="12" r="10" /><path d="m16 9-5.5 5.5L8 12" /></symbol>
<symbol id="i-triangle-alert" viewBox="0 0 24 24" fill="none" stroke="currentColor" stroke-width="2" stroke-linecap="round" stroke-linejoin="round"><path d="m21.73 18-8-14a2 2 0 0 0-3.48 0l-8 14A2 2 0 0 0 4 21h16a2 2 0 0 0 1.73-3" /><path d="M12 9v4" /><path d="M12 17h.01" /></symbol>
<symbol id="i-lock" viewBox="0 0 24 24" fill="none" stroke="currentColor" stroke-width="2" stroke-linecap="round" stroke-linejoin="round"><rect width="18" height="11" x="3" y="11" rx="2" ry="2" /><path d="M7 11V7a5 5 0 0 1 10 0v4" /></symbol>
<symbol id="i-eye" viewBox="0 0 24 24" fill="none" stroke="currentColor" stroke-width="2" stroke-linecap="round" stroke-linejoin="round"><path d="M2.062 12.348a1 1 0 0 1 0-.696 10.75 10.75 0 0 1 19.876 0 1 1 0 0 1 0 .696 10.75 10.75 0 0 1-19.876 0" /><circle cx="12" cy="12" r="3" /></symbol>
<symbol id="i-eye-off" viewBox="0 0 24 24" fill="none" stroke="currentColor" stroke-width="2" stroke-linecap="round" stroke-linejoin="round"><path d="M10.733 5.076a10.744 10.744 0 0 1 11.205 6.575 1 1 0 0 1 0 .696 10.747 10.747 0 0 1-1.444 2.49" /><path d="M14.084 14.158a3 3 0 0 1-4.242-4.242" /><path d="M17.479 17.499a10.75 10.75 0 0 1-15.417-5.151 1 1 0 0 1 0-.696 10.75 10.75 0 0 1 4.446-5.143" /><path d="m2 2 20 20" /></symbol>
<symbol id="i-paperclip" viewBox="0 0 24 24" fill="none" stroke="currentColor" stroke-width="2" stroke-linecap="round" stroke-linejoin="round"><path d="m16 6-8.414 8.586a2 2 0 0 0 2.829 2.829l8.414-8.586a4 4 0 1 0-5.657-5.657l-8.379 8.551a6 6 0 1 0 8.485 8.485l8.379-8.551" /></symbol>
<symbol id="i-image" viewBox="0 0 24 24" fill="none" stroke="currentColor" stroke-width="2" stroke-linecap="round" stroke-linejoin="round"><rect width="18" height="18" x="3" y="3" rx="2" ry="2" /><circle cx="9" cy="9" r="2" /><path d="m21 15-3.086-3.086a2 2 0 0 0-2.828 0L6 21" /></symbol>
<symbol id="i-upload" viewBox="0 0 24 24" fill="none" stroke="currentColor" stroke-width="2" stroke-linecap="round" stroke-linejoin="round"><path d="M12 3v12" /><path d="m17 8-5-5-5 5" /><path d="M21 15v4a2 2 0 0 1-2 2H5a2 2 0 0 1-2-2v-4" /></symbol>
<symbol id="i-download" viewBox="0 0 24 24" fill="none" stroke="currentColor" stroke-width="2" stroke-linecap="round" stroke-linejoin="round"><path d="M12 15V3" /><path d="M21 15v4a2 2 0 0 1-2 2H5a2 2 0 0 1-2-2v-4" /><path d="m7 10 5 5 5-5" /></symbol>
<symbol id="i-printer" viewBox="0 0 24 24" fill="none" stroke="currentColor" stroke-width="2" stroke-linecap="round" stroke-linejoin="round"><path d="M6 18H4a2 2 0 0 1-2-2v-5a2 2 0 0 1 2-2h16a2 2 0 0 1 2 2v5a2 2 0 0 1-2 2h-2" /><path d="M6 9V3a1 1 0 0 1 1-1h10a1 1 0 0 1 1 1v6" /><rect x="6" y="14" width="12" height="8" rx="1" /></symbol>
<symbol id="i-trash-2" viewBox="0 0 24 24" fill="none" stroke="currentColor" stroke-width="2" stroke-linecap="round" stroke-linejoin="round"><path d="M10 11v6" /><path d="M14 11v6" /><path d="M19 6v14a2 2 0 0 1-2 2H7a2 2 0 0 1-2-2V6" /><path d="M3 6h18" /><path d="M8 6V4a2 2 0 0 1 2-2h4a2 2 0 0 1 2 2v2" /></symbol>
<symbol id="i-pencil" viewBox="0 0 24 24" fill="none" stroke="currentColor" stroke-width="2" stroke-linecap="round" stroke-linejoin="round"><path d="M21.174 6.812a1 1 0 0 0-3.986-3.987L3.842 16.174a2 2 0 0 0-.5.83l-1.321 4.352a.5.5 0 0 0 .623.622l4.353-1.32a2 2 0 0 0 .83-.497z" /><path d="m15 5 4 4" /></symbol>
<symbol id="i-plus" viewBox="0 0 24 24" fill="none" stroke="currentColor" stroke-width="2" stroke-linecap="round" stroke-linejoin="round"><path d="M5 12h14" /><path d="M12 5v14" /></symbol>
<symbol id="i-filter" viewBox="0 0 24 24" fill="none" stroke="currentColor" stroke-width="2" stroke-linecap="round" stroke-linejoin="round"><path d="M10 20a1 1 0 0 0 .553.895l2 1A1 1 0 0 0 14 21v-7a2 2 0 0 1 .517-1.341L21.74 4.67A1 1 0 0 0 21 3H3a1 1 0 0 0-.742 1.67l7.225 7.989A2 2 0 0 1 10 14z" /></symbol>
<symbol id="i-calendar" viewBox="0 0 24 24" fill="none" stroke="currentColor" stroke-width="2" stroke-linecap="round" stroke-linejoin="round"><path d="M8 2v3" /><path d="M16 2v3" /><rect x="3" y="3" width="18" height="18" rx="2" /><path d="M3 9h18" /></symbol>
<symbol id="i-layout-dashboard" viewBox="0 0 24 24" fill="none" stroke="currentColor" stroke-width="2" stroke-linecap="round" stroke-linejoin="round"><rect width="7" height="9" x="3" y="3" rx="1" /><rect width="7" height="5" x="14" y="3" rx="1" /><rect width="7" height="9" x="14" y="12" rx="1" /><rect width="7" height="5" x="3" y="16" rx="1" /></symbol>
<symbol id="i-newspaper" viewBox="0 0 24 24" fill="none" stroke="currentColor" stroke-width="2" stroke-linecap="round" stroke-linejoin="round"><path d="M15 18h-5" /><path d="M18 14h-8" /><path d="M4 22h16a2 2 0 0 0 2-2V4a2 2 0 0 0-2-2H8a2 2 0 0 0-2 2v16a2 2 0 0 1-4 0v-9a2 2 0 0 1 2-2h2" /><rect width="8" height="4" x="10" y="6" rx="1" /></symbol>
<symbol id="i-inbox" viewBox="0 0 24 24" fill="none" stroke="currentColor" stroke-width="2" stroke-linecap="round" stroke-linejoin="round"><polyline points="22 12 16 12 14 15 10 15 8 12 2 12" /><path d="M5.45 5.11 2 12v6a2 2 0 0 0 2 2h16a2 2 0 0 0 2-2v-6l-3.45-6.89A2 2 0 0 0 16.76 4H7.24a2 2 0 0 0-1.79 1.11z" /></symbol>
<symbol id="i-settings" viewBox="0 0 24 24" fill="none" stroke="currentColor" stroke-width="2" stroke-linecap="round" stroke-linejoin="round"><path d="M9.671 4.136a2.34 2.34 0 0 1 4.659 0 2.34 2.34 0 0 0 3.319 1.915 2.34 2.34 0 0 1 2.33 4.033 2.34 2.34 0 0 0 0 3.831 2.34 2.34 0 0 1-2.33 4.033 2.34 2.34 0 0 0-3.319 1.915 2.34 2.34 0 0 1-4.659 0 2.34 2.34 0 0 0-3.32-1.915 2.34 2.34 0 0 1-2.33-4.033 2.34 2.34 0 0 0 0-3.831A2.34 2.34 0 0 1 6.35 6.051a2.34 2.34 0 0 0 3.319-1.915" /><circle cx="12" cy="12" r="3" /></symbol>
<symbol id="i-external-link" viewBox="0 0 24 24" fill="none" stroke="currentColor" stroke-width="2" stroke-linecap="round" stroke-linejoin="round"><path d="M15 3h6v6" /><path d="M10 14 21 3" /><path d="M18 13v6a2 2 0 0 1-2 2H5a2 2 0 0 1-2-2V8a2 2 0 0 1 2-2h6" /></symbol>
<symbol id="i-copy" viewBox="0 0 24 24" fill="none" stroke="currentColor" stroke-width="2" stroke-linecap="round" stroke-linejoin="round"><rect width="14" height="14" x="8" y="8" rx="2" ry="2" /><path d="M4 16c-1.1 0-2-.9-2-2V4c0-1.1.9-2 2-2h10c1.1 0 2 .9 2 2" /></symbol>
<symbol id="i-send" viewBox="0 0 24 24" fill="none" stroke="currentColor" stroke-width="2" stroke-linecap="round" stroke-linejoin="round"><path d="M14.536 21.686a.5.5 0 0 0 .937-.024l6.5-19a.496.496 0 0 0-.635-.635l-19 6.5a.5.5 0 0 0-.024.937l7.93 3.18a2 2 0 0 1 1.112 1.11z" /><path d="m21.854 2.147-10.94 10.939" /></symbol>
<symbol id="i-refresh-cw" viewBox="0 0 24 24" fill="none" stroke="currentColor" stroke-width="2" stroke-linecap="round" stroke-linejoin="round"><path d="M3 12a9 9 0 0 1 9-9 9.75 9.75 0 0 1 6.74 2.74L21 8" /><path d="M21 3v5h-5" /><path d="M21 12a9 9 0 0 1-9 9 9.75 9.75 0 0 1-6.74-2.74L3 16" /><path d="M8 16H3v5" /></symbol>
<symbol id="i-landmark" viewBox="0 0 24 24" fill="none" stroke="currentColor" stroke-width="2" stroke-linecap="round" stroke-linejoin="round"><path d="M10 18v-7" /><path d="M11.119 2.205a2 2 0 0 1 1.762 0l7.84 3.846A.5.5 0 0 1 20.5 7h-17a.5.5 0 0 1-.22-.949z" /><path d="M14 18v-7" /><path d="M18 18v-7" /><path d="M3 22h18" /><path d="M6 18v-7" /></symbol>
<symbol id="i-graduation-cap" viewBox="0 0 24 24" fill="none" stroke="currentColor" stroke-width="2" stroke-linecap="round" stroke-linejoin="round"><path d="M21.42 10.922a1 1 0 0 0-.019-1.838L12.83 5.18a2 2 0 0 0-1.66 0L2.6 9.08a1 1 0 0 0 0 1.832l8.57 3.908a2 2 0 0 0 1.66 0z" /><path d="M22 10v6" /><path d="M6 12.5V16a6 3 0 0 0 12 0v-3.5" /></symbol>
<symbol id="i-file-search" viewBox="0 0 24 24" fill="none" stroke="currentColor" stroke-width="2" stroke-linecap="round" stroke-linejoin="round"><path d="M6 22a2 2 0 0 1-2-2V4a2 2 0 0 1 2-2h8a2.4 2.4 0 0 1 1.704.706l3.588 3.588A2.4 2.4 0 0 1 20 8v12a2 2 0 0 1-2 2z" /><path d="M14 2v5a1 1 0 0 0 1 1h5" /><circle cx="11.5" cy="14.5" r="2.5" /><path d="M13.3 16.3 15 18" /></symbol>
<symbol id="i-trending-up" viewBox="0 0 24 24" fill="none" stroke="currentColor" stroke-width="2" stroke-linecap="round" stroke-linejoin="round"><path d="M16 7h6v6" /><path d="m22 7-8.5 8.5-5-5L2 17" /></symbol>
<symbol id="i-hand-heart" viewBox="0 0 24 24" fill="none" stroke="currentColor" stroke-width="2" stroke-linecap="round" stroke-linejoin="round"><path d="M11 14h2a2 2 0 0 0 0-4h-3c-.6 0-1.1.2-1.4.6L3 16" /><path d="m14.45 13.39 5.05-4.694C20.196 8 21 6.85 21 5.75a2.75 2.75 0 0 0-4.797-1.837.276.276 0 0 1-.406 0A2.75 2.75 0 0 0 11 5.75c0 1.2.802 2.248 1.5 2.946L16 11.95" /><path d="m2 15 6 6" /><path d="m7 20 1.6-1.4c.3-.4.8-.6 1.4-.6h4c1.1 0 2.1-.4 2.8-1.2l4.6-4.4a1 1 0 0 0-2.75-2.91" /></symbol>
<symbol id="i-sprout" viewBox="0 0 24 24" fill="none" stroke="currentColor" stroke-width="2" stroke-linecap="round" stroke-linejoin="round"><path d="M14 9.536V7a4 4 0 0 1 4-4h1.5a.5.5 0 0 1 .5.5V5a4 4 0 0 1-4 4 4 4 0 0 0-4 4c0 2 1 3 1 5a5 5 0 0 1-1 3" /><path d="M4 9a5 5 0 0 1 8 4 5 5 0 0 1-8-4" /><path d="M5 21h14" /></symbol>
<symbol id="i-lightbulb" viewBox="0 0 24 24" fill="none" stroke="currentColor" stroke-width="2" stroke-linecap="round" stroke-linejoin="round"><path d="M15 14c.2-1 .7-1.7 1.5-2.5 1-.9 1.5-2.2 1.5-3.5A6 6 0 0 0 6 8c0 1 .2 2.2 1.5 3.5.7.7 1.3 1.5 1.5 2.5" /><path d="M9 18h6" /><path d="M10 22h4" /></symbol>
<symbol id="i-globe" viewBox="0 0 24 24" fill="none" stroke="currentColor" stroke-width="2" stroke-linecap="round" stroke-linejoin="round"><circle cx="12" cy="12" r="10" /><path d="M12 2a14.5 14.5 0 0 0 0 20 14.5 14.5 0 0 0 0-20" /><path d="M2 12h20" /></symbol>
<symbol id="i-building-2" viewBox="0 0 24 24" fill="none" stroke="currentColor" stroke-width="2" stroke-linecap="round" stroke-linejoin="round"><path d="M10 12h4" /><path d="M10 8h4" /><path d="M14 21v-3a2 2 0 0 0-4 0v3" /><path d="M6 10H4a2 2 0 0 0-2 2v7a2 2 0 0 0 2 2h16a2 2 0 0 0 2-2V9a2 2 0 0 0-2-2h-2" /><path d="M6 21V5a2 2 0 0 1 2-2h8a2 2 0 0 1 2 2v16" /></symbol>
<symbol id="i-network" viewBox="0 0 24 24" fill="none" stroke="currentColor" stroke-width="2" stroke-linecap="round" stroke-linejoin="round"><rect x="16" y="16" width="6" height="6" rx="1" /><rect x="2" y="16" width="6" height="6" rx="1" /><rect x="9" y="2" width="6" height="6" rx="1" /><path d="M5 16v-3a1 1 0 0 1 1-1h12a1 1 0 0 1 1 1v3" /><path d="M12 12V8" /></symbol>
<symbol id="i-hand-coins" viewBox="0 0 24 24" fill="none" stroke="currentColor" stroke-width="2" stroke-linecap="round" stroke-linejoin="round"><path d="M11 15h2a2 2 0 1 0 0-4h-3c-.6 0-1.1.2-1.4.6L3 17" /><path d="m7 21 1.6-1.4c.3-.4.8-.6 1.4-.6h4c1.1 0 2.1-.4 2.8-1.2l4.6-4.4a2 2 0 0 0-2.75-2.91l-4.2 3.9" /><path d="m2 16 6 6" /><circle cx="16" cy="9" r="2.9" /><circle cx="6" cy="5" r="3" /></symbol>
<symbol id="i-handshake" viewBox="0 0 24 24" fill="none" stroke="currentColor" stroke-width="2" stroke-linecap="round" stroke-linejoin="round"><path d="m11 17 2 2a1 1 0 1 0 3-3" /><path d="m14 14 2.5 2.5a1 1 0 1 0 3-3l-3.88-3.88a3 3 0 0 0-4.24 0l-.88.88a1 1 0 1 1-3-3l2.81-2.81a5.79 5.79 0 0 1 7.06-.87l.47.28a2 2 0 0 0 1.42.25L21 4" /><path d="m21 3 1 11h-2" /><path d="M3 3 2 14l6.5 6.5a1 1 0 1 0 3-3" /><path d="M3 4h8" /></symbol>
<symbol id="i-flower-2" viewBox="0 0 24 24" fill="none" stroke="currentColor" stroke-width="2" stroke-linecap="round" stroke-linejoin="round"><path d="M12 5a3 3 0 1 1 3 3m-3-3a3 3 0 1 0-3 3m3-3v1M9 8a3 3 0 1 0 3 3M9 8h1m5 0a3 3 0 1 1-3 3m3-3h-1m-2 3v-1" /><circle cx="12" cy="8" r="2" /><path d="M12 10v12" /><path d="M12 22c4.2 0 7-1.667 7-5-4.2 0-7 1.667-7 5Z" /><path d="M12 22c-4.2 0-7-1.667-7-5 4.2 0 7 1.667 7 5Z" /></symbol>
<symbol id="i-info" viewBox="0 0 24 24" fill="none" stroke="currentColor" stroke-width="2" stroke-linecap="round" stroke-linejoin="round"><circle cx="12" cy="12" r="10" /><path d="M12 16v-4" /><path d="M12 8h.01" /></symbol>
<symbol id="i-star" viewBox="0 0 24 24" fill="none" stroke="currentColor" stroke-width="2" stroke-linecap="round" stroke-linejoin="round"><path d="M11.525 2.295a.53.53 0 0 1 .95 0l2.31 4.679a2.123 2.123 0 0 0 1.595 1.16l5.166.756a.53.53 0 0 1 .294.904l-3.736 3.638a2.123 2.123 0 0 0-.611 1.878l.882 5.14a.53.53 0 0 1-.771.56l-4.618-2.428a2.122 2.122 0 0 0-1.973 0L6.396 21.01a.53.53 0 0 1-.77-.56l.881-5.139a2.122 2.122 0 0 0-.611-1.879L2.16 9.795a.53.53 0 0 1 .294-.906l5.165-.755a2.122 2.122 0 0 0 1.597-1.16z" /></symbol>
<symbol id="i-pin" viewBox="0 0 24 24" fill="none" stroke="currentColor" stroke-width="2" stroke-linecap="round" stroke-linejoin="round"><path d="M12 17v5" /><path d="M9 10.76a2 2 0 0 1-1.11 1.79l-1.78.9A2 2 0 0 0 5 15.24V16a1 1 0 0 0 1 1h12a1 1 0 0 0 1-1v-.76a2 2 0 0 0-1.11-1.79l-1.78-.9A2 2 0 0 1 15 10.76V7a1 1 0 0 1 1-1 2 2 0 0 0 0-4H8a2 2 0 0 0 0 4 1 1 0 0 1 1 1z" /></symbol>
<symbol id="i-bell" viewBox="0 0 24 24" fill="none" stroke="currentColor" stroke-width="2" stroke-linecap="round" stroke-linejoin="round"><path d="M10.268 21a2 2 0 0 0 3.464 0" /><path d="M3.262 15.326A1 1 0 0 0 4 17h16a1 1 0 0 0 .74-1.673C19.41 13.956 18 12.499 18 8A6 6 0 0 0 6 8c0 4.499-1.411 5.956-2.738 7.326" /></symbol>
<symbol id="i-chart-column" viewBox="0 0 24 24" fill="none" stroke="currentColor" stroke-width="2" stroke-linecap="round" stroke-linejoin="round"><path d="M3 3v16a2 2 0 0 0 2 2h16" /><path d="M18 17V9" /><path d="M13 17V5" /><path d="M8 17v-3" /></symbol>
<symbol id="i-house" viewBox="0 0 24 24" fill="none" stroke="currentColor" stroke-width="2" stroke-linecap="round" stroke-linejoin="round"><path d="M15 21v-8a1 1 0 0 0-1-1h-4a1 1 0 0 0-1 1v8" /><path d="M3 10a2 2 0 0 1 .709-1.528l7-6a2 2 0 0 1 2.582 0l7 6A2 2 0 0 1 21 10v9a2 2 0 0 1-2 2H5a2 2 0 0 1-2-2z" /></symbol>
<symbol id="i-list" viewBox="0 0 24 24" fill="none" stroke="currentColor" stroke-width="2" stroke-linecap="round" stroke-linejoin="round"><path d="M3 5h.01" /><path d="M3 12h.01" /><path d="M3 19h.01" /><path d="M8 5h13" /><path d="M8 12h13" /><path d="M8 19h13" /></symbol>
<symbol id="i-ban" viewBox="0 0 24 24" fill="none" stroke="currentColor" stroke-width="2" stroke-linecap="round" stroke-linejoin="round"><circle cx="12" cy="12" r="10" /><path d="M4.929 4.929 19.07 19.071" /></symbol>
<symbol id="i-user-check" viewBox="0 0 24 24" fill="none" stroke="currentColor" stroke-width="2" stroke-linecap="round" stroke-linejoin="round"><path d="m16 11 2 2 4-4" /><path d="M16 21v-2a4 4 0 0 0-4-4H6a4 4 0 0 0-4 4v2" /><circle cx="9" cy="7" r="4" /></symbol>
<symbol id="i-user-x" viewBox="0 0 24 24" fill="none" stroke="currentColor" stroke-width="2" stroke-linecap="round" stroke-linejoin="round"><path d="M16 21v-2a4 4 0 0 0-4-4H6a4 4 0 0 0-4 4v2" /><circle cx="9" cy="7" r="4" /><line x1="17" x2="22" y1="8" y2="13" /><line x1="22" x2="17" y1="8" y2="13" /></symbol>
<symbol id="i-shield" viewBox="0 0 24 24" fill="none" stroke="currentColor" stroke-width="2" stroke-linecap="round" stroke-linejoin="round"><path d="M20 13c0 5-3.5 7.5-7.66 8.95a1 1 0 0 1-.67-.01C7.5 20.5 4 18 4 13V6a1 1 0 0 1 1-1c2 0 4.5-1.2 6.24-2.72a1.17 1.17 0 0 1 1.52 0C14.51 3.81 17 5 19 5a1 1 0 0 1 1 1z" /></symbol>
<symbol id="i-circle-help" viewBox="0 0 24 24" fill="none" stroke="currentColor" stroke-width="2" stroke-linecap="round" stroke-linejoin="round"><circle cx="12" cy="12" r="10" /><path d="M9.09 9a3 3 0 0 1 5.83 1c0 2-3 3-3 3" /><path d="M12 17h.01" /></symbol>
<symbol id="i-bookmark" viewBox="0 0 24 24" fill="none" stroke="currentColor" stroke-width="2" stroke-linecap="round" stroke-linejoin="round"><path d="M17 3a2 2 0 0 1 2 2v15a1 1 0 0 1-1.496.868l-4.512-2.578a2 2 0 0 0-1.984 0l-4.512 2.578A1 1 0 0 1 5 20V5a2 2 0 0 1 2-2z" /></symbol>
<symbol id="i-quote" viewBox="0 0 24 24" fill="none" stroke="currentColor" stroke-width="2" stroke-linecap="round" stroke-linejoin="round"><path d="M16 3a2 2 0 0 0-2 2v6a2 2 0 0 0 2 2 1 1 0 0 1 1 1v1a2 2 0 0 1-2 2 1 1 0 0 0-1 1v2a1 1 0 0 0 1 1 6 6 0 0 0 6-6V5a2 2 0 0 0-2-2z" /><path d="M5 3a2 2 0 0 0-2 2v6a2 2 0 0 0 2 2 1 1 0 0 1 1 1v1a2 2 0 0 1-2 2 1 1 0 0 0-1 1v2a1 1 0 0 0 1 1 6 6 0 0 0 6-6V5a2 2 0 0 0-2-2z" /></symbol>
<symbol id="i-hourglass" viewBox="0 0 24 24" fill="none" stroke="currentColor" stroke-width="2" stroke-linecap="round" stroke-linejoin="round"><path d="M5 22h14" /><path d="M5 2h14" /><path d="M17 22v-4.172a2 2 0 0 0-.586-1.414L12 12l-4.414 4.414A2 2 0 0 0 7 17.828V22" /><path d="M7 2v4.172a2 2 0 0 0 .586 1.414L12 12l4.414-4.414A2 2 0 0 0 17 6.172V2" /></symbol>
<symbol id="i-badge-check" viewBox="0 0 24 24" fill="none" stroke="currentColor" stroke-width="2" stroke-linecap="round" stroke-linejoin="round"><path d="M3.85 8.62a4 4 0 0 1 4.78-4.77 4 4 0 0 1 6.74 0 4 4 0 0 1 4.78 4.78 4 4 0 0 1 0 6.74 4 4 0 0 1-4.77 4.78 4 4 0 0 1-6.75 0 4 4 0 0 1-4.78-4.77 4 4 0 0 1 0-6.76Z" /><path d="m16 9-5.5 5.5L8 12" /></symbol>
<symbol id="i-circle-x" viewBox="0 0 24 24" fill="none" stroke="currentColor" stroke-width="2" stroke-linecap="round" stroke-linejoin="round"><circle cx="12" cy="12" r="10" /><path d="m15 9-6 6" /><path d="m9 9 6 6" /></symbol>
<symbol id="i-loader-circle" viewBox="0 0 24 24" fill="none" stroke="currentColor" stroke-width="2" stroke-linecap="round" stroke-linejoin="round"><path d="M21 12a9 9 0 1 1-6.219-8.56" /></symbol>
<symbol id="i-file-spreadsheet" viewBox="0 0 24 24" fill="none" stroke="currentColor" stroke-width="2" stroke-linecap="round" stroke-linejoin="round"><path d="M6 22a2 2 0 0 1-2-2V4a2 2 0 0 1 2-2h8a2.4 2.4 0 0 1 1.704.706l3.588 3.588A2.4 2.4 0 0 1 20 8v12a2 2 0 0 1-2 2z" /><path d="M14 2v5a1 1 0 0 0 1 1h5" /><path d="M8 13h2" /><path d="M14 13h2" /><path d="M8 17h2" /><path d="M14 17h2" /></symbol>
<symbol id="i-reply" viewBox="0 0 24 24" fill="none" stroke="currentColor" stroke-width="2" stroke-linecap="round" stroke-linejoin="round"><path d="M20 18v-2a4 4 0 0 0-4-4H4" /><path d="m9 17-5-5 5-5" /></symbol>
<symbol id="i-instagram" viewBox="0 0 24 24" fill="none" stroke="currentColor" stroke-width="2" stroke-linecap="round" stroke-linejoin="round"><rect x="3" y="3" width="18" height="18" rx="5"/><circle cx="12" cy="12" r="4"/><circle cx="17.5" cy="6.5" r=".6" fill="currentColor"/></symbol>
<symbol id="i-facebook" viewBox="0 0 24 24" fill="none" stroke="currentColor" stroke-width="2" stroke-linecap="round" stroke-linejoin="round"><path d="M15 3h-2.5A3.5 3.5 0 0 0 9 6.5V21"/><path d="M6 11h8"/></symbol>
<symbol id="i-youtube" viewBox="0 0 24 24" fill="none" stroke="currentColor" stroke-width="2" stroke-linecap="round" stroke-linejoin="round"><rect x="2.5" y="5" width="19" height="14" rx="4"/><path d="m10 9 5 3-5 3z" fill="currentColor"/></symbol>
<symbol id="i-whatsapp" viewBox="0 0 24 24" fill="none" stroke="currentColor" stroke-width="2" stroke-linecap="round" stroke-linejoin="round"><path d="M3.5 20.5 5 16a8.5 8.5 0 1 1 3 3z"/><path d="M9 9.5c.3 2.3 2.2 4.2 4.5 4.5l1-1.2 2 .9c-.2 1.2-1.2 1.8-2.3 1.8A6 6 0 0 1 8 9.3c0-1.1.6-2.1 1.8-2.3l.9 2z"/></symbol>
<symbol id="i-google" viewBox="0 0 48 48"><path fill="#FFC107" d="M43.6 20.1H42V20H24v8h11.3c-1.6 4.7-6.1 8-11.3 8-6.6 0-12-5.4-12-12s5.4-12 12-12c3.1 0 5.8 1.2 8 3l5.7-5.7C34 6.1 29.3 4 24 4 13 4 4 13 4 24s9 20 20 20 20-9 20-20c0-1.3-.1-2.6-.4-3.9z"/><path fill="#FF3D00" d="m6.3 14.7 6.6 4.8C14.7 15.1 19 12 24 12c3.1 0 5.8 1.2 8 3l5.7-5.7C34 6.1 29.3 4 24 4 16.3 4 9.7 8.3 6.3 14.7z"/><path fill="#4CAF50" d="M24 44c5.2 0 9.9-2 13.4-5.2l-6.2-5.2A11.9 11.9 0 0 1 24 36c-5.2 0-9.6-3.3-11.3-7.9l-6.5 5C9.5 39.6 16.2 44 24 44z"/><path fill="#1976D2" d="M43.6 20.1H42V20H24v8h11.3a12 12 0 0 1-4.1 5.6l6.2 5.2C37 39.2 44 34 44 24c0-1.3-.1-2.6-.4-3.9z"/></symbol>
<symbol id="i-gerbang" viewBox="0 0 320 900"><path fill="currentColor" d="M0 900 L0 820 L22 820 L22 600 L8 600 L8 584 L4 566 L26 584 L42 584 L42 584 L42 452 L29 452 L29 438 L25 423 L46 438 L84 438 L84 438 L84 362 L72 362 L72 350 L68 337 L88 350 L120 350 L120 350 L120 288 L110 288 L110 277 L106 266 L124 277 L154 277 L154 277 L154 226 L145 226 L145 216 L141 206 L158 216 L186 216 L186 216 L186 174 L178 174 L178 165 L174 156 L190 165 L216 165 L216 165 L216 133 L209 133 L209 125 L205 117 L220 125 L244 125 L244 125 L244 100 L238 100 L238 93 L234 86 L248 93 L268 93 L268 58 L282 58 L282 40 L292 40 L292 22 L320 14 L320 900Z"/></symbol>
</svg>